<svg width="68" height="71" viewBox="0 0 68 71" fill="none" xmlns="http://www.w3.org/2000/svg">
<path d="M45.0315 21.1829L40.748 25.4664L34.3632 31.8512L29.9383 36.2761L24.3416 41.8728L19.9167 46.2977L18.9468 47.2676L19.9571 48.2778L57.7404 10.4945L56.7302 9.48423L52.7296 13.4848V2.41249C52.7296 2.02859 52.5679 1.64472 52.3053 1.36185C52.0224 1.07898 51.6587 0.9375 51.2546 0.9375H1.69178C1.30789 0.9375 0.923954 1.09918 0.641084 1.36185C0.358215 1.64472 0.216797 2.00839 0.216797 2.41249V68.6242C0.216797 69.0081 0.37842 69.392 0.641084 69.6749C0.923954 69.9578 1.28768 70.0992 1.69178 70.0992H42.223C42.6069 70.0992 42.9907 69.9376 43.2534 69.6749L47.7995 65.149L52.2649 60.6433C52.5477 60.3604 52.6892 59.9967 52.6892 59.5926V25.527L49.7393 28.4769V56.6427H40.3439C39.96 56.6427 39.5761 56.8043 39.2932 57.067C39.0104 57.3498 38.869 57.7136 38.869 58.1177V67.1291H3.14655V3.86725H49.7393V16.4145L44.9708 21.1829H45.0315ZM41.8795 59.5926H49.7393L41.8795 67.1897V59.5926Z" fill="#616E7D"/>
<path d="M45.6164 11.5078H9.79297V15.7913H45.6164V11.5078Z" fill="#82BFAB"/>
<path d="M5.75391 25.4631H40.749L45.0324 21.1797H5.75391V25.4631Z" fill="#82BFAB"/>
<path d="M5.89453 36.2765H29.9385L34.3836 31.8516H5.89453V36.2765Z" fill="#82BFAB"/>
<path d="M47.1119 36.2765V31.8516H46.4451L42 36.2765H47.1119Z" fill="#82BFAB"/>
<path d="M47.112 46.2999V41.875H36.4236L31.9785 46.2999H47.112Z" fill="#82BFAB"/>
<path d="M5.89453 46.2999H19.9168L24.3619 41.875H5.89453V46.2999Z" fill="#82BFAB"/>
<path d="M14.1584 56.3155L14.2998 56.0327L16.3405 51.8906H5.89453V56.3155H14.1584Z" fill="#82BFAB"/>
<path d="M23.7958 54.2344L19.5527 56.3155H36.8684V51.8906H26.4022L25.008 53.2848L23.9978 52.2745L23.6139 51.8906H22.4824L23.9372 53.3454C24.0584 53.4666 24.1191 53.6485 24.0989 53.8303C24.0787 54.0122 23.9574 54.1536 23.7958 54.2344Z" fill="#82BFAB"/>
<path d="M49.7387 59.5938H41.8789V67.1908L49.7387 59.5938Z" fill="white"/>
<path d="M45.0313 21.1829L49.7997 16.4145V3.86719H3.20703V67.129H38.9294V58.1176C38.9294 57.7337 39.0911 57.3498 39.3537 57.0669C39.6366 56.784 40.0003 56.6426 40.4044 56.6426H49.7997V28.4769L52.7496 25.5269L62.7915 15.4851L44.2635 34.0131L46.4457 31.8511H47.1124V36.276H42.0006L24.988 53.2886L26.3822 51.8944H36.8483V56.3193H19.5326L16.1988 57.9559L13.8753 59.1076C13.653 59.2086 13.4106 59.1683 13.2489 59.0066C13.0873 58.845 13.0468 58.5823 13.1479 58.3803L14.1581 56.3396H5.89427V51.9146H16.3403L18.0173 48.4798C18.0981 48.3181 18.2395 48.1969 18.4214 48.1767C18.6032 48.1565 18.7851 48.197 18.9063 48.3384L22.4825 51.9146H23.614L23.9979 52.2985L61.8015 14.5152L57.8009 10.5146L20.0175 48.2979L19.0073 47.2877L19.9771 46.3179H5.93466V41.893H24.402L29.9988 36.2962H5.93466V31.8713H34.4237L40.8085 25.4866H5.81343V21.203H45.0919L45.0313 21.1829ZM9.79382 11.4844H45.6173V15.768H9.79382V11.4844ZM31.9789 46.2977L36.4038 41.8728H47.1124V46.2977H31.9789ZM58.3262 11.242L61.0135 13.9293L23.21 51.7328L20.5227 49.0456L58.3262 11.2622V11.242Z" fill="white"/>
<path d="M42 36.2786L44.2629 34.0156L42 36.2786Z" fill="white"/>
<path d="M58.3342 11.2341L20.5449 49.0234L23.2309 51.7094L61.0202 13.9201L58.3342 11.2341Z" fill="#3BC998"/>
<path d="M24.9888 53.2857L62.7923 15.5024L61.782 14.4922L23.9785 52.2755L24.9888 53.2857Z" fill="#616E7D"/>
<path d="M18.9056 48.3217C18.7843 48.2005 18.6025 48.1399 18.4207 48.1601C18.2388 48.1803 18.0974 48.3015 18.0165 48.4631L16.3396 51.898L14.2988 56.04L16.2183 57.9595L19.5521 56.3229L23.7952 54.2417C23.9568 54.1609 24.0781 54.0195 24.0983 53.8377C24.1185 53.6558 24.078 53.4739 23.9366 53.3527L22.4818 51.898L18.9056 48.3217Z" fill="#82BFAB"/>
<path d="M13.1488 58.3594C13.0478 58.5817 13.0882 58.8241 13.2499 58.9858C13.4115 59.1474 13.6742 59.1878 13.8762 59.0868L16.1998 57.9351L14.2803 56.0156L14.1389 56.2985L13.1287 58.3392L13.1488 58.3594Z" fill="#616E7D"/>
<path d="M60.4279 5.78494L59.741 6.47191L58.5691 7.64377L57.3164 8.89647L63.3577 14.9378L64.6104 13.6851L65.7823 12.5132L66.4894 11.8262C68.1462 10.1694 68.1462 7.46192 66.4894 5.80511C64.8326 4.1483 62.1252 4.1483 60.4482 5.80511L60.4279 5.78494Z" fill="#616E7D"/>
</svg>
